<svg xmlns="http://www.w3.org/2000/svg" xmlns:xlink="http://www.w3.org/1999/xlink" width="50" zoomAndPan="magnify" viewBox="0 0 37.5 37.499999" height="50" preserveAspectRatio="xMidYMid meet" version="1.0"><defs><clipPath id="eb2405f4e8"><path d="M 0 8 L 37 8 L 37 36.804688 L 0 36.804688 Z M 0 8 " clip-rule="nonzero"/></clipPath><clipPath id="cddd43be98"><path d="M 19 11 L 37 11 L 37 36.804688 L 19 36.804688 Z M 19 11 " clip-rule="nonzero"/></clipPath><clipPath id="3b7f8930e9"><path d="M 0 6 L 37.007812 6 L 37.007812 27 L 0 27 Z M 0 6 " clip-rule="nonzero"/></clipPath><clipPath id="0356a7e096"><path d="M 0 12 L 37.007812 12 L 37.007812 27 L 0 27 Z M 0 12 " clip-rule="nonzero"/></clipPath><clipPath id="a90aac0da1"><path d="M 15 1.277344 L 26 1.277344 L 26 10 L 15 10 Z M 15 1.277344 " clip-rule="nonzero"/></clipPath><clipPath id="920e37e9d2"><path d="M 17 1.277344 L 26 1.277344 L 26 10 L 17 10 Z M 17 1.277344 " clip-rule="nonzero"/></clipPath></defs><g clip-path="url(#eb2405f4e8)"><path fill="#472c1b" d="M 36.082031 13.75 C 36.078125 14.226562 36.074219 14.699219 36.070312 15.171875 C 36.058594 16.753906 36.046875 18.332031 36.03125 19.90625 C 36.015625 21.03125 36.003906 22.15625 35.988281 23.277344 C 35.957031 25.40625 35.914062 27.519531 35.863281 29.613281 C 35.859375 29.820312 35.796875 30.007812 35.683594 30.179688 C 35.570312 30.351562 35.417969 30.480469 35.226562 30.5625 L 35.003906 30.660156 C 30.335938 32.648438 24.769531 34.726562 20.179688 36.707031 C 20.128906 36.730469 20.078125 36.746094 20.027344 36.757812 C 19.921875 36.785156 19.8125 36.796875 19.703125 36.789062 C 19.683594 36.789062 19.664062 36.785156 19.644531 36.785156 C 13.121094 35.921875 7.773438 34.09375 1.664062 31.691406 C 1.476562 31.613281 1.320312 31.492188 1.199219 31.328125 C 1.082031 31.164062 1.015625 30.976562 1.003906 30.773438 C 0.867188 28.59375 0.777344 26.425781 0.738281 24.25 C 0.722656 23.203125 0.710938 22.152344 0.714844 21.101562 C 0.714844 20.050781 0.726562 18.992188 0.746094 17.929688 C 0.761719 17.0625 0.78125 16.195312 0.804688 15.324219 C 0.804688 15.199219 0.8125 15.070312 0.816406 14.945312 C 0.816406 14.878906 0.824219 14.816406 0.839844 14.75 L 0.847656 14.726562 C 0.855469 14.683594 0.867188 14.640625 0.882812 14.601562 C 0.890625 14.582031 0.898438 14.5625 0.90625 14.542969 C 0.914062 14.527344 0.925781 14.503906 0.9375 14.484375 L 0.949219 14.457031 C 0.984375 14.402344 1.019531 14.347656 1.0625 14.296875 L 1.097656 14.257812 L 1.113281 14.242188 C 1.140625 14.210938 1.171875 14.179688 1.207031 14.152344 C 1.21875 14.140625 1.234375 14.132812 1.25 14.121094 L 1.292969 14.089844 C 1.308594 14.078125 1.324219 14.070312 1.339844 14.0625 L 1.386719 14.035156 C 6.320312 11.457031 13.167969 8.628906 18.761719 8.941406 C 23.96875 9.230469 27.597656 10.375 32.09375 11.75 C 33.117188 12.0625 34.1875 12.386719 35.328125 12.71875 C 35.386719 12.734375 35.445312 12.757812 35.5 12.785156 C 35.515625 12.792969 35.527344 12.800781 35.542969 12.808594 C 35.566406 12.820312 35.59375 12.835938 35.617188 12.851562 C 35.660156 12.882812 35.699219 12.914062 35.738281 12.949219 C 35.757812 12.96875 35.777344 12.984375 35.792969 13.003906 C 35.8125 13.023438 35.828125 13.042969 35.84375 13.0625 C 35.90625 13.136719 35.953125 13.21875 35.992188 13.304688 C 36.054688 13.449219 36.082031 13.597656 36.082031 13.75 Z M 36.082031 13.75 " fill-opacity="1" fill-rule="nonzero"/><path fill="#472c1b" d="M 36.082031 13.75 C 36.078125 14.226562 36.074219 14.699219 36.070312 15.171875 C 36.058594 16.753906 36.046875 18.332031 36.03125 19.90625 C 36.015625 21.03125 36.003906 22.15625 35.988281 23.277344 C 35.957031 25.40625 35.914062 27.519531 35.863281 29.613281 C 35.859375 29.820312 35.796875 30.007812 35.683594 30.179688 C 35.570312 30.351562 35.417969 30.480469 35.226562 30.5625 L 35.003906 30.660156 C 30.335938 32.648438 24.769531 34.726562 20.179688 36.707031 C 20.128906 36.730469 20.078125 36.746094 20.027344 36.757812 C 19.921875 36.785156 19.8125 36.796875 19.703125 36.789062 C 19.683594 36.789062 19.664062 36.785156 19.644531 36.785156 C 13.121094 35.921875 7.773438 34.09375 1.664062 31.691406 C 1.476562 31.613281 1.320312 31.492188 1.199219 31.328125 C 1.082031 31.164062 1.015625 30.976562 1.003906 30.773438 C 0.867188 28.59375 0.777344 26.425781 0.738281 24.25 C 0.722656 23.203125 0.710938 22.152344 0.714844 21.101562 C 0.714844 20.050781 0.726562 18.992188 0.746094 17.929688 C 0.761719 17.0625 0.78125 16.195312 0.804688 15.324219 C 0.804688 15.199219 0.8125 15.070312 0.816406 14.945312 C 0.816406 14.878906 0.824219 14.816406 0.839844 14.75 L 0.847656 14.726562 C 0.855469 14.683594 0.867188 14.640625 0.882812 14.601562 C 0.890625 14.582031 0.898438 14.5625 0.90625 14.542969 C 0.914062 14.527344 0.925781 14.503906 0.9375 14.484375 L 0.949219 14.457031 C 0.984375 14.402344 1.019531 14.347656 1.0625 14.296875 L 1.097656 14.257812 L 1.113281 14.242188 C 1.140625 14.210938 1.171875 14.179688 1.207031 14.152344 C 1.21875 14.140625 1.234375 14.132812 1.25 14.121094 L 1.292969 14.089844 C 1.308594 14.078125 1.324219 14.070312 1.339844 14.0625 L 1.386719 14.035156 C 6.320312 11.457031 13.167969 8.628906 18.761719 8.941406 C 23.96875 9.230469 27.597656 10.375 32.09375 11.75 C 33.117188 12.0625 34.1875 12.386719 35.328125 12.71875 C 35.386719 12.734375 35.445312 12.757812 35.5 12.785156 C 35.515625 12.792969 35.527344 12.800781 35.542969 12.808594 C 35.566406 12.820312 35.59375 12.835938 35.617188 12.851562 C 35.660156 12.882812 35.699219 12.914062 35.738281 12.949219 C 35.757812 12.96875 35.777344 12.984375 35.792969 13.003906 C 35.8125 13.023438 35.828125 13.042969 35.84375 13.0625 C 35.90625 13.136719 35.953125 13.21875 35.992188 13.304688 C 36.054688 13.449219 36.082031 13.597656 36.082031 13.75 Z M 36.082031 13.75 " fill-opacity="1" fill-rule="nonzero"/></g><g clip-path="url(#cddd43be98)"><path fill="#30190f" d="M 36.082031 13.75 C 36.078125 14.226562 36.074219 14.699219 36.070312 15.171875 C 36.058594 16.753906 36.046875 18.332031 36.03125 19.90625 C 36.015625 21.03125 36.003906 22.15625 35.988281 23.277344 C 35.957031 25.40625 35.914062 27.519531 35.863281 29.613281 C 35.859375 29.820312 35.796875 30.007812 35.683594 30.179688 C 35.570312 30.351562 35.417969 30.480469 35.226562 30.5625 L 35.003906 30.660156 C 30.335938 32.648438 24.769531 34.726562 20.179688 36.707031 C 20.128906 36.730469 20.078125 36.746094 20.027344 36.757812 C 19.921875 36.785156 19.8125 36.796875 19.703125 36.789062 C 19.605469 34.214844 19.476562 31.679688 19.390625 29.195312 C 19.347656 28.058594 19.320312 26.933594 19.300781 25.820312 C 19.28125 24.515625 19.28125 23.226562 19.308594 21.957031 C 19.324219 21.328125 19.347656 20.699219 19.375 20.078125 C 19.382812 19.90625 19.394531 19.730469 19.402344 19.558594 C 19.515625 19.40625 19.636719 19.253906 19.753906 19.105469 C 22.773438 15.378906 27.214844 13.0625 31.929688 11.800781 L 32.09375 11.753906 C 33.117188 12.070312 34.1875 12.394531 35.332031 12.722656 C 35.355469 12.730469 35.378906 12.738281 35.402344 12.75 L 35.414062 12.75 C 35.4375 12.757812 35.460938 12.765625 35.480469 12.777344 C 35.503906 12.785156 35.523438 12.796875 35.542969 12.808594 C 35.546875 12.8125 35.550781 12.8125 35.554688 12.816406 C 35.578125 12.828125 35.597656 12.839844 35.617188 12.855469 C 35.660156 12.882812 35.703125 12.917969 35.742188 12.953125 C 35.761719 12.96875 35.777344 12.988281 35.796875 13.007812 C 35.8125 13.023438 35.832031 13.042969 35.847656 13.066406 C 35.863281 13.082031 35.875 13.101562 35.890625 13.121094 C 35.902344 13.140625 35.914062 13.15625 35.925781 13.175781 C 35.953125 13.21875 35.972656 13.261719 35.996094 13.308594 C 36.054688 13.449219 36.085938 13.597656 36.082031 13.75 Z M 36.082031 13.75 " fill-opacity="1" fill-rule="nonzero"/></g><path fill="#b0866f" d="M 35.992188 13.3125 C 30.425781 15.207031 25.128906 17.625 19.683594 19.96875 C 19.585938 20.015625 19.480469 20.050781 19.375 20.078125 C 19.039062 20.164062 18.699219 20.167969 18.359375 20.09375 C 12.601562 18.78125 6.476562 16.902344 0.804688 15.324219 C 0.804688 15.195312 0.8125 15.070312 0.816406 14.945312 C 0.824219 14.53125 1.015625 14.226562 1.382812 14.03125 C 6.320312 11.457031 13.167969 8.628906 18.761719 8.941406 C 23.96875 9.230469 27.597656 10.375 32.09375 11.75 C 33.117188 12.0625 34.183594 12.386719 35.328125 12.71875 C 35.644531 12.8125 35.867188 13.011719 35.992188 13.3125 Z M 35.992188 13.3125 " fill-opacity="1" fill-rule="nonzero"/><g clip-path="url(#3b7f8930e9)"><path fill="#b0866f" d="M 36.851562 14.324219 C 36.339844 15.417969 34.878906 15.582031 33.996094 16.390625 C 33.207031 17.113281 32.960938 18.277344 32.941406 19.363281 C 32.921875 20.449219 33.082031 21.542969 32.914062 22.613281 C 32.734375 23.730469 31.925781 24.9375 30.828125 24.824219 C 29.953125 24.734375 29.367188 23.835938 29.109375 22.972656 C 28.851562 22.109375 28.785156 21.164062 28.332031 20.390625 C 27.875 19.617188 26.792969 19.109375 26.089844 19.664062 C 24.972656 20.546875 26.03125 22.910156 24.785156 23.585938 C 24.058594 23.980469 23.199219 23.375 22.671875 22.730469 C 22.144531 22.085938 21.601562 21.296875 20.78125 21.21875 C 19.964844 21.140625 19.261719 21.839844 18.90625 22.597656 C 18.546875 23.351562 18.40625 24.210938 18.011719 24.949219 C 17.617188 25.6875 16.820312 26.320312 16.023438 26.113281 C 14.855469 25.804688 14.742188 24.203125 14.433594 23.011719 C 14.214844 22.148438 13.742188 21.328125 13.011719 20.839844 C 12.285156 20.351562 11.277344 20.257812 10.542969 20.726562 C 9.804688 21.199219 9.308594 22.171875 8.453125 22.152344 C 7.820312 22.132812 7.347656 21.546875 7.082031 20.960938 C 6.816406 20.371094 6.652344 19.710938 6.222656 19.242188 C 5.605469 18.578125 4.621094 18.476562 3.726562 18.492188 C 2.832031 18.507812 1.890625 18.589844 1.097656 18.171875 C 0.765625 18 0.484375 17.699219 0.265625 17.203125 C 0.0507812 16.707031 -0.0390625 16.191406 0.0078125 15.652344 C 0.0507812 15.113281 0.222656 14.617188 0.515625 14.164062 C 0.875 13.609375 1.363281 13.207031 1.976562 12.957031 C 6.527344 11.128906 11.085938 9.28125 15.722656 7.339844 C 16.664062 6.945312 17.632812 6.867188 18.625 7.109375 L 33.496094 10.714844 C 34.410156 10.933594 35.351562 11.171875 36.082031 11.78125 C 36.390625 12.039062 36.628906 12.351562 36.796875 12.714844 C 37.03125 13.230469 37.09375 13.8125 36.851562 14.324219 Z M 36.851562 14.324219 " fill-opacity="1" fill-rule="nonzero"/></g><g clip-path="url(#0356a7e096)"><path fill="#a1775f" d="M 36.851562 14.324219 C 36.339844 15.417969 34.878906 15.582031 33.996094 16.390625 C 33.207031 17.113281 32.960938 18.277344 32.941406 19.363281 C 32.921875 20.449219 33.082031 21.542969 32.914062 22.613281 C 32.734375 23.730469 31.925781 24.9375 30.828125 24.824219 C 29.953125 24.734375 29.367188 23.835938 29.109375 22.972656 C 28.851562 22.109375 28.785156 21.164062 28.332031 20.390625 C 27.875 19.617188 26.792969 19.109375 26.089844 19.664062 C 24.972656 20.546875 26.03125 22.910156 24.785156 23.585938 C 24.058594 23.980469 23.199219 23.375 22.671875 22.730469 C 22.144531 22.085938 21.601562 21.296875 20.78125 21.21875 C 19.964844 21.140625 19.261719 21.839844 18.90625 22.597656 C 18.546875 23.351562 18.40625 24.210938 18.011719 24.949219 C 17.617188 25.6875 16.820312 26.320312 16.023438 26.113281 C 14.855469 25.804688 14.742188 24.203125 14.433594 23.011719 C 14.214844 22.148438 13.742188 21.328125 13.011719 20.839844 C 12.285156 20.351562 11.277344 20.257812 10.542969 20.726562 C 9.804688 21.199219 9.308594 22.171875 8.453125 22.152344 C 7.820312 22.132812 7.347656 21.546875 7.082031 20.960938 C 6.816406 20.371094 6.652344 19.710938 6.222656 19.242188 C 5.605469 18.578125 4.621094 18.476562 3.726562 18.492188 C 2.832031 18.507812 1.890625 18.589844 1.097656 18.171875 C 0.765625 18 0.484375 17.699219 0.265625 17.203125 C 0.0507812 16.707031 -0.0390625 16.191406 0.0078125 15.652344 C 0.0507812 15.113281 0.222656 14.617188 0.515625 14.164062 C 6.347656 15.601562 12.140625 17.210938 18.21875 19.03125 C 18.914062 19.238281 19.597656 19.214844 20.273438 18.957031 L 36.800781 12.710938 C 37.03125 13.230469 37.09375 13.8125 36.851562 14.324219 Z M 36.851562 14.324219 " fill-opacity="1" fill-rule="nonzero"/></g><path fill="#efdec7" d="M 24.464844 10.429688 C 24.402344 11.507812 23.777344 12.480469 22.980469 13.097656 C 22.1875 13.71875 21.242188 14.03125 20.300781 14.242188 C 18.121094 14.730469 15.59375 15.367188 13.484375 13.882812 C 13.140625 13.632812 12.886719 13.308594 12.726562 12.914062 C 12.550781 12.5 12.484375 12.066406 12.53125 11.617188 C 12.628906 10.734375 13.207031 9.929688 13.953125 9.625 C 13.140625 8.984375 13.371094 7.46875 14.078125 6.652344 C 14.789062 5.835938 15.792969 5.472656 16.671875 4.910156 C 17.222656 4.554688 17.757812 4.042969 18.058594 3.433594 C 18.070312 3.410156 18.082031 3.386719 18.097656 3.367188 C 18.164062 3.257812 18.253906 3.175781 18.371094 3.125 C 18.4375 3.089844 18.507812 3.070312 18.582031 3.0625 C 18.78125 3.039062 18.953125 3.09375 19.105469 3.222656 C 19.765625 3.78125 20.59375 4.15625 21.324219 4.625 C 22.40625 5.320312 23.433594 6.671875 22.988281 8.007812 C 23.925781 8.230469 24.53125 9.359375 24.464844 10.429688 Z M 24.464844 10.429688 " fill-opacity="1" fill-rule="nonzero"/><path fill="#e7d2b6" d="M 24.464844 10.429688 C 24.402344 11.507812 23.777344 12.480469 22.980469 13.097656 C 22.1875 13.71875 21.242188 14.03125 20.300781 14.242188 C 18.121094 14.730469 15.59375 15.367188 13.484375 13.882812 C 13.140625 13.632812 12.886719 13.308594 12.726562 12.914062 C 13.605469 13.042969 14.488281 13.089844 15.378906 13.054688 C 17.113281 12.96875 18.882812 12.445312 20.179688 11.296875 C 20.738281 10.804688 21.222656 10.148438 21.242188 9.40625 C 21.265625 8.664062 20.648438 7.882812 19.90625 7.953125 C 20.230469 7.527344 20.421875 7.054688 20.484375 6.523438 C 20.546875 5.996094 20.46875 5.488281 20.253906 5 C 20.050781 4.570312 19.757812 4.210938 19.378906 3.921875 C 19 3.632812 18.574219 3.445312 18.105469 3.359375 C 18.171875 3.253906 18.261719 3.171875 18.378906 3.117188 C 18.449219 3.097656 18.519531 3.078125 18.589844 3.058594 C 18.789062 3.035156 18.960938 3.089844 19.113281 3.21875 C 19.773438 3.777344 20.601562 4.152344 21.332031 4.621094 C 22.414062 5.316406 23.441406 6.667969 22.996094 8.003906 C 23.925781 8.230469 24.53125 9.359375 24.464844 10.429688 Z M 24.464844 10.429688 " fill-opacity="1" fill-rule="nonzero"/><g clip-path="url(#a90aac0da1)"><path fill="#5b3c2b" d="M 25.761719 5.503906 C 25.519531 6.816406 24.554688 7.925781 23.386719 8.660156 C 22.371094 9.289062 21.273438 9.667969 20.085938 9.800781 C 19.675781 9.84375 19.300781 9.757812 18.953125 9.542969 C 18.402344 9.214844 17.878906 8.847656 17.378906 8.449219 C 17.046875 8.179688 16.734375 7.886719 16.449219 7.570312 C 15.613281 6.640625 15.035156 5.441406 15.101562 4.21875 C 15.167969 3 15.980469 1.78125 17.203125 1.398438 C 18.703125 0.933594 20.507812 2 20.734375 3.484375 C 20.960938 2.613281 21.851562 2.039062 22.792969 1.933594 C 23.253906 1.878906 23.695312 1.941406 24.117188 2.128906 C 25.375 2.710938 26 4.195312 25.761719 5.503906 Z M 25.761719 5.503906 " fill-opacity="1" fill-rule="nonzero"/></g><g clip-path="url(#920e37e9d2)"><path fill="#4f3221" d="M 25.761719 5.503906 C 25.519531 6.816406 24.554688 7.925781 23.386719 8.660156 C 22.371094 9.289062 21.273438 9.667969 20.085938 9.800781 C 19.675781 9.84375 19.300781 9.757812 18.953125 9.542969 C 18.402344 9.214844 17.878906 8.847656 17.378906 8.449219 C 17.378906 8.441406 17.378906 8.433594 17.378906 8.429688 C 19.605469 9.21875 22.328125 8.488281 23.792969 6.710938 C 24.539062 5.804688 24.964844 4.582031 24.59375 3.484375 C 24.332031 2.71875 23.59375 2.097656 22.792969 1.933594 C 23.25 1.878906 23.691406 1.941406 24.117188 2.128906 C 25.375 2.710938 26 4.195312 25.761719 5.503906 Z M 25.761719 5.503906 " fill-opacity="1" fill-rule="nonzero"/></g><path fill="#eedec7" d="M 16.449219 9.433594 C 17.164062 8.519531 18.484375 8.242188 19.621094 8.492188 C 20.757812 8.742188 21.742188 9.4375 22.632812 10.179688 C 21.824219 10.792969 20.925781 11.199219 19.929688 11.402344 C 18.9375 11.601562 17.949219 11.578125 16.964844 11.328125 C 16.195312 11.125 15.4375 10.726562 16.449219 9.433594 Z M 16.449219 9.433594 " fill-opacity="1" fill-rule="nonzero"/></svg>